<?xml version="1.0" encoding="iso-8859-1"?>
<!-- Generator: Adobe Illustrator 17.1.0, SVG Export Plug-In . SVG Version: 6.00 Build 0)  -->
<!DOCTYPE svg PUBLIC "-//W3C//DTD SVG 1.1//EN" "http://www.w3.org/Graphics/SVG/1.1/DTD/svg11.dtd">
<svg version="1.1" id="Capa_1" xmlns="http://www.w3.org/2000/svg" xmlns:xlink="http://www.w3.org/1999/xlink" x="0px" y="0px"
	 viewBox="0 0 552.624 552.624" style="enable-background:new 0 0 552.624 552.624;" xml:space="preserve">
<path d="M440.301,125.365l-13.905-41.713c-0.587-23.066-16.742-44.351-45.662-60.058C352.718,8.38,315.634,0,276.312,0
	S199.906,8.38,171.89,23.595c-28.921,15.707-45.076,36.992-45.663,60.058l-13.904,41.713c-0.255,0.765-0.385,1.566-0.385,2.372
	v333.657c0,0.291,0.017,0.579,0.049,0.861c1.041,24.739,18.639,47.57,49.818,64.505c30.71,16.678,71.376,25.863,114.507,25.863
	s83.797-9.186,114.506-25.863c31.181-16.935,48.778-39.766,49.819-64.505c0.032-0.282,0.049-0.57,0.049-0.861V127.737
	C440.686,126.931,440.556,126.13,440.301,125.365z M179.048,36.776C204.905,22.733,239.448,15,276.312,15
	s71.406,7.733,97.263,21.776c24.408,13.256,37.85,30.366,37.85,48.178c0,5.92-1.493,11.762-4.373,17.411
	c0.383-2.377,0.584-4.78,0.584-7.207c0-20.84-14.272-40.068-40.188-54.144c-24.468-13.288-56.834-20.606-91.137-20.606
	c-34.304,0-66.67,7.318-91.137,20.606c-25.915,14.075-40.188,33.304-40.188,54.144c0,2.427,0.202,4.831,0.585,7.209
	c-2.88-5.65-4.374-11.492-4.374-17.413C141.199,67.143,154.641,50.032,179.048,36.776z M270.756,154.834
	c-60.596-1.549-110.769-28.245-110.769-59.676c0-32.388,53.27-59.75,116.324-59.75s116.324,27.362,116.324,59.75
	c0,31.432-50.172,58.127-110.769,59.676c-1.847,0.039-3.696,0.073-5.556,0.073S272.603,154.874,270.756,154.834z M383.659,513.579
	c-28.55,15.506-66.673,24.045-107.347,24.045s-78.798-8.539-107.348-24.045c-21.352-11.597-35.139-25.885-40.031-41.148
	c9.614,10.987,23.075,20.842,39.808,28.938c29.735,14.385,67.938,22.308,107.57,22.308c44.917,0,86.768-9.848,117.842-27.729
	c3.591-2.066,4.826-6.651,2.761-10.241c-2.065-3.591-6.65-4.823-10.241-2.761c-28.417,16.353-68.643,25.73-110.361,25.73
	c-37.415,0-73.298-7.391-101.038-20.811c-26.404-12.774-43.217-29.834-47.34-48.036c-0.196-0.868-0.543-1.661-0.996-2.371V152.754
	c9.707,11.938,23.88,22.627,41.804,31.298c29.735,14.386,67.938,22.308,107.57,22.308c44.915,0,86.764-9.847,117.837-27.726
	c3.591-2.066,4.826-6.651,2.761-10.241s-6.649-4.822-10.241-2.761c-28.416,16.351-68.639,25.728-110.356,25.728
	c-37.416,0-73.298-7.391-101.038-20.811c-25.455-12.314-41.991-28.613-46.842-46.078l4.581-13.743
	c7.368,13.455,20.563,25.638,38.877,35.584c28.016,15.215,65.1,23.595,104.422,23.595s76.406-8.38,104.422-23.595
	c18.313-9.946,31.509-22.13,38.876-35.585l4.572,13.714c-1.891,6.821-5.562,13.511-10.976,19.91
	c-2.676,3.162-2.281,7.895,0.881,10.57c1.409,1.192,3.13,1.774,4.841,1.774c2.13,0,4.246-0.902,5.729-2.655
	c0.351-0.415,0.69-0.832,1.029-1.249v284.669c-0.453,0.711-0.801,1.505-0.998,2.375c-1.697,7.487-5.561,14.833-11.482,21.832
	c-2.676,3.162-2.281,7.895,0.881,10.57c1.409,1.192,3.13,1.774,4.841,1.774c1.727,0,3.439-0.604,4.818-1.763
	C418.905,487.58,405.095,501.936,383.659,513.579z M298.417,126.936l57.476-8.211c11.72-1.675,20.557-11.864,20.557-23.702
	c0-11.839-8.837-22.028-20.557-23.703l-57.476-8.211c-1.526-0.218-3.076-0.328-4.606-0.328c-17.75,0-32.19,14.464-32.19,32.242
	s14.44,32.241,32.19,32.241C295.34,127.264,296.89,127.153,298.417,126.936z M276.62,95.022c0-9.508,7.712-17.242,17.19-17.242
	c0.822,0,1.659,0.06,2.485,0.178l57.476,8.211c4.377,0.625,7.678,4.432,7.678,8.854s-3.301,8.228-7.678,8.853l-57.476,8.211
	c-0.826,0.118-1.663,0.178-2.485,0.178C284.332,112.264,276.62,104.529,276.62,95.022z M299.667,101.646V88.398
	c0-4.143,3.357-7.5,7.5-7.5s7.5,3.357,7.5,7.5v13.247c0,4.143-3.357,7.5-7.5,7.5S299.667,105.788,299.667,101.646z"/>
<g>
</g>
<g>
</g>
<g>
</g>
<g>
</g>
<g>
</g>
<g>
</g>
<g>
</g>
<g>
</g>
<g>
</g>
<g>
</g>
<g>
</g>
<g>
</g>
<g>
</g>
<g>
</g>
<g>
</g>
</svg>
